<svg viewBox="0 0 20 20" fill="none" xmlns="http://www.w3.org/2000/svg"><path fill-rule="evenodd" clip-rule="evenodd" d="M3.293 9.70703C3.10553 9.5195 3.00021 9.26519 3.00021 9.00003C3.00021 8.73487 3.10553 8.48056 3.293 8.29303L9.293 2.29303C9.48053 2.10556 9.73484 2.00024 10 2.00024C10.2652 2.00024 10.5195 2.10556 10.707 2.29303L16.707 8.29303C16.8892 8.48163 16.99 8.73423 16.9877 8.99643C16.9854 9.25863 16.8802 9.50944 16.6948 9.69485C16.5094 9.88026 16.2586 9.98543 15.9964 9.9877C15.7342 9.98998 15.4816 9.88919 15.293 9.70703L11 5.41403V17C11 17.2652 10.8946 17.5196 10.7071 17.7071C10.5196 17.8947 10.2652 18 10 18C9.73478 18 9.48043 17.8947 9.29289 17.7071C9.10536 17.5196 9 17.2652 9 17V5.41403L4.707 9.70703C4.51947 9.8945 4.26516 9.99982 4 9.99982C3.73484 9.99982 3.48053 9.8945 3.293 9.70703Z" fill="black"/></svg>