<svg viewBox="0 0 20 20" fill="none" xmlns="http://www.w3.org/2000/svg"><path fill-rule="evenodd" clip-rule="evenodd" d="M5.293 7.70703C5.10553 7.5195 5.00021 7.26519 5.00021 7.00003C5.00021 6.73487 5.10553 6.48056 5.293 6.29303L9.293 2.29303C9.48053 2.10556 9.73484 2.00024 10 2.00024C10.2652 2.00024 10.5195 2.10556 10.707 2.29303L14.707 6.29303C14.8892 6.48163 14.99 6.73423 14.9877 6.99643C14.9854 7.25863 14.8802 7.50944 14.6948 7.69485C14.5094 7.88026 14.2586 7.98543 13.9964 7.9877C13.7342 7.98998 13.4816 7.88919 13.293 7.70703L11 5.41403V17C11 17.2652 10.8946 17.5196 10.7071 17.7071C10.5196 17.8947 10.2652 18 10 18C9.73478 18 9.48043 17.8947 9.29289 17.7071C9.10536 17.5196 9 17.2652 9 17V5.41403L6.707 7.70703C6.51947 7.8945 6.26516 7.99982 6 7.99982C5.73484 7.99982 5.48053 7.8945 5.293 7.70703Z" fill="black"/></svg>