<svg viewBox="0 0 20 20" fill="none" xmlns="http://www.w3.org/2000/svg"><path fill-rule="evenodd" clip-rule="evenodd" d="M7.707 14.707C7.51947 14.8945 7.26516 14.9998 7 14.9998C6.73484 14.9998 6.48053 14.8945 6.293 14.707L2.293 10.707C2.10553 10.5195 2.00021 10.2651 2.00021 9.99998C2.00021 9.73482 2.10553 9.48051 2.293 9.29298L6.293 5.29298C6.4816 5.11082 6.7342 5.01003 6.9964 5.01231C7.2586 5.01458 7.50941 5.11975 7.69482 5.30516C7.88023 5.49057 7.9854 5.74138 7.98767 6.00358C7.98995 6.26578 7.88916 6.51838 7.707 6.70698L5.414 8.99998H17C17.2652 8.99998 17.5196 9.10534 17.7071 9.29287C17.8946 9.48041 18 9.73476 18 9.99998C18 10.2652 17.8946 10.5196 17.7071 10.7071C17.5196 10.8946 17.2652 11 17 11H5.414L7.707 13.293C7.89447 13.4805 7.99979 13.7348 7.99979 14C7.99979 14.2651 7.89447 14.5195 7.707 14.707Z" fill="black"/></svg>