<svg viewBox="0 0 20 20" fill="none" xmlns="http://www.w3.org/2000/svg"><path fill-rule="evenodd" clip-rule="evenodd" d="M14.707 12.293C14.8945 12.4805 14.9998 12.7348 14.9998 13C14.9998 13.2652 14.8945 13.5195 14.707 13.707L10.707 17.707C10.5195 17.8945 10.2652 17.9998 9.99999 17.9998C9.73483 17.9998 9.48052 17.8945 9.29299 17.707L5.29299 13.707C5.19748 13.6148 5.1213 13.5044 5.06889 13.3824C5.01648 13.2604 4.98889 13.1292 4.98774 12.9964C4.98659 12.8636 5.01189 12.7319 5.06217 12.609C5.11245 12.4861 5.1867 12.3745 5.28059 12.2806C5.37449 12.1867 5.48614 12.1125 5.60904 12.0622C5.73193 12.0119 5.86361 11.9866 5.99639 11.9877C6.12917 11.9889 6.26039 12.0165 6.38239 12.0689C6.5044 12.1213 6.61474 12.1975 6.70699 12.293L8.99999 14.586V3C8.99999 2.73478 9.10535 2.48043 9.29288 2.29289C9.48042 2.10536 9.73477 2 9.99999 2C10.2652 2 10.5196 2.10536 10.7071 2.29289C10.8946 2.48043 11 2.73478 11 3V14.586L13.293 12.293C13.4805 12.1055 13.7348 12.0002 14 12.0002C14.2652 12.0002 14.5195 12.1055 14.707 12.293Z" fill="black"/></svg>