<svg viewBox="0 0 20 20" fill="none" xmlns="http://www.w3.org/2000/svg"><path fill-rule="evenodd" clip-rule="evenodd" d="M16.707 10.293C16.8945 10.4805 16.9998 10.7348 16.9998 11C16.9998 11.2652 16.8945 11.5195 16.707 11.707L10.707 17.707C10.5195 17.8945 10.2652 17.9998 10 17.9998C9.73484 17.9998 9.48053 17.8945 9.293 17.707L3.293 11.707C3.19749 11.6148 3.12131 11.5044 3.0689 11.3824C3.01649 11.2604 2.9889 11.1292 2.98775 10.9964C2.9866 10.8636 3.0119 10.7319 3.06218 10.609C3.11246 10.4861 3.18671 10.3745 3.28061 10.2806C3.3745 10.1867 3.48615 10.1125 3.60905 10.0622C3.73194 10.0119 3.86362 9.9866 3.9964 9.98775C4.12918 9.9889 4.2604 10.0165 4.38241 10.0689C4.50441 10.1213 4.61475 10.1975 4.707 10.293L9 14.586V3C9 2.73478 9.10536 2.48043 9.29289 2.29289C9.48043 2.10536 9.73478 2 10 2C10.2652 2 10.5196 2.10536 10.7071 2.29289C10.8946 2.48043 11 2.73478 11 3V14.586L15.293 10.293C15.4805 10.1055 15.7348 10.0002 16 10.0002C16.2652 10.0002 16.5195 10.1055 16.707 10.293Z" fill="black"/></svg>