<svg viewBox="0 0 20 20" fill="none" xmlns="http://www.w3.org/2000/svg"><path fill-rule="evenodd" clip-rule="evenodd" d="M14.243 5.75703C13.4419 4.95645 12.4307 4.39894 11.3261 4.14894C10.2215 3.89894 9.06873 3.96667 8.00102 4.34429C6.93331 4.72192 5.99427 5.39401 5.29248 6.28288C4.59068 7.17174 4.15479 8.24108 4.03518 9.36727C3.91557 10.4935 4.11714 11.6305 4.61659 12.6469C5.11603 13.6634 5.89295 14.5177 6.85753 15.1112C7.8221 15.7046 8.93495 16.013 10.0674 16.0006C11.1999 15.9882 12.3057 15.6555 13.257 15.041C13.3671 14.9655 13.4913 14.9128 13.6221 14.8861C13.7529 14.8593 13.8878 14.859 14.0187 14.8852C14.1496 14.9114 14.274 14.9636 14.3844 15.0386C14.4949 15.1136 14.5892 15.21 14.6618 15.3221C14.7344 15.4342 14.7838 15.5596 14.8071 15.6911C14.8304 15.8226 14.8272 15.9574 14.7976 16.0876C14.768 16.2178 14.7126 16.3407 14.6347 16.4492C14.5568 16.5576 14.4579 16.6494 14.344 16.719C12.8507 17.6846 11.0783 18.1252 9.30666 17.9711C7.53506 17.8169 5.86531 17.0769 4.5612 15.868C3.25709 14.659 2.39296 13.05 2.10534 11.2951C1.81771 9.54024 2.12298 7.73955 2.97292 6.17753C3.82286 4.61551 5.16902 3.3812 6.79873 2.6696C8.42843 1.958 10.2488 1.80968 11.9722 2.24807C13.6956 2.68646 15.2238 3.68657 16.3154 5.09039C17.407 6.49422 17.9997 8.22174 18 10C18.0002 10.5572 17.8452 11.1035 17.5523 11.5776C17.2595 12.0517 16.8404 12.4348 16.3421 12.6841C15.8437 12.9334 15.2858 13.0389 14.7308 12.9889C14.1759 12.9389 13.6458 12.7354 13.2 12.401C12.6301 13.1608 11.8085 13.6931 10.8822 13.9025C9.95578 14.112 8.9851 13.985 8.1438 13.5443C7.30249 13.1035 6.64546 12.3778 6.29026 11.497C5.93507 10.6161 5.90488 9.63765 6.20511 8.73659C6.50534 7.83553 7.11639 7.0707 7.92892 6.57894C8.74146 6.08719 9.70247 5.9006 10.64 6.05256C11.5775 6.20451 12.4304 6.68511 13.046 7.40834C13.6616 8.13158 13.9998 9.05027 14 10C14 10.2652 14.1054 10.5196 14.2929 10.7071C14.4804 10.8947 14.7348 11 15 11C15.2652 11 15.5196 10.8947 15.7071 10.7071C15.8946 10.5196 16 10.2652 16 10C16 8.46303 15.414 6.93003 14.243 5.75703ZM12 10C12 9.46959 11.7893 8.96089 11.4142 8.58581C11.0391 8.21074 10.5304 8.00003 10 8.00003C9.46957 8.00003 8.96086 8.21074 8.58579 8.58581C8.21071 8.96089 8 9.46959 8 10C8 10.5305 8.21071 11.0392 8.58579 11.4142C8.96086 11.7893 9.46957 12 10 12C10.5304 12 11.0391 11.7893 11.4142 11.4142C11.7893 11.0392 12 10.5305 12 10Z" fill="black"/></svg>