<svg viewBox="0 0 20 20" fill="none" xmlns="http://www.w3.org/2000/svg"><path fill-rule="evenodd" clip-rule="evenodd" d="M6.707 4.879C7.26948 4.31635 8.03242 4.00017 8.828 4H15C15.7956 4 16.5587 4.31607 17.1213 4.87868C17.6839 5.44129 18 6.20435 18 7V13C18 13.7956 17.6839 14.5587 17.1213 15.1213C16.5587 15.6839 15.7956 16 15 16H8.828C8.03276 15.9996 7.27023 15.6834 6.708 15.121L2.293 10.707C2.10553 10.5195 2.00021 10.2652 2.00021 10C2.00021 9.73484 2.10553 9.48053 2.293 9.293L6.707 4.879ZM10.707 7.293C10.5184 7.11084 10.2658 7.01005 10.0036 7.01233C9.7414 7.0146 9.49059 7.11977 9.30518 7.30518C9.11977 7.49059 9.0146 7.7414 9.01233 8.0036C9.01005 8.2658 9.11084 8.5184 9.293 8.707L10.586 10L9.293 11.293C9.19749 11.3852 9.12131 11.4956 9.0689 11.6176C9.01649 11.7396 8.9889 11.8708 8.98775 12.0036C8.9866 12.1364 9.0119 12.2681 9.06218 12.391C9.11246 12.5139 9.18671 12.6255 9.28061 12.7194C9.3745 12.8133 9.48615 12.8875 9.60905 12.9378C9.73194 12.9881 9.86362 13.0134 9.9964 13.0123C10.1292 13.0111 10.2604 12.9835 10.3824 12.9311C10.5044 12.8787 10.6148 12.8025 10.707 12.707L12 11.414L13.293 12.707C13.4816 12.8892 13.7342 12.99 13.9964 12.9877C14.2586 12.9854 14.5094 12.8802 14.6948 12.6948C14.8802 12.5094 14.9854 12.2586 14.9877 11.9964C14.99 11.7342 14.8892 11.4816 14.707 11.293L13.414 10L14.707 8.707C14.8892 8.5184 14.99 8.2658 14.9877 8.0036C14.9854 7.7414 14.8802 7.49059 14.6948 7.30518C14.5094 7.11977 14.2586 7.0146 13.9964 7.01233C13.7342 7.01005 13.4816 7.11084 13.293 7.293L12 8.586L10.707 7.293Z" fill="black"/></svg>