<svg viewBox="0 0 20 20" fill="none" xmlns="http://www.w3.org/2000/svg"><path d="M10 2C8.4087 2 6.88258 2.63214 5.75736 3.75736C4.63214 4.88258 4 6.4087 4 8V11.586L3.293 12.293C3.15319 12.4329 3.05798 12.611 3.01942 12.805C2.98085 12.9989 3.00065 13.2 3.07632 13.3827C3.15199 13.5654 3.28013 13.7215 3.44454 13.8314C3.60895 13.9413 3.80225 14 4 14H16C16.1978 14 16.391 13.9413 16.5555 13.8314C16.7199 13.7215 16.848 13.5654 16.9237 13.3827C16.9993 13.2 17.0192 12.9989 16.9806 12.805C16.942 12.611 16.8468 12.4329 16.707 12.293L16 11.586V8C16 6.4087 15.3679 4.88258 14.2426 3.75736C13.1174 2.63214 11.5913 2 10 2ZM10 18C9.20435 18 8.44129 17.6839 7.87868 17.1213C7.31607 16.5587 7 15.7956 7 15H13C13 15.7956 12.6839 16.5587 12.1213 17.1213C11.5587 17.6839 10.7957 18 10 18Z" fill="black"/></svg>