<svg viewBox="0 0 20 20" fill="none" xmlns="http://www.w3.org/2000/svg"><path fill-rule="evenodd" clip-rule="evenodd" d="M14.707 12.707C14.5195 12.8945 14.2652 12.9998 14 12.9998C13.7348 12.9998 13.4805 12.8945 13.293 12.707L10 9.41403L6.707 12.707C6.5184 12.8892 6.26579 12.99 6.0036 12.9877C5.7414 12.9854 5.49059 12.8803 5.30518 12.6948C5.11977 12.5094 5.0146 12.2586 5.01232 11.9964C5.01005 11.7342 5.11084 11.4816 5.293 11.293L9.293 7.29303C9.48053 7.10556 9.73483 7.00024 10 7.00024C10.2652 7.00024 10.5195 7.10556 10.707 7.29303L14.707 11.293C14.8945 11.4806 14.9998 11.7349 14.9998 12C14.9998 12.2652 14.8945 12.5195 14.707 12.707Z" fill="black"/></svg>