<svg viewBox="0 0 20 20" fill="none" xmlns="http://www.w3.org/2000/svg"><path fill-rule="evenodd" clip-rule="evenodd" d="M4.293 15.707C4.10553 15.5195 4.00021 15.2652 4.00021 15C4.00021 14.7349 4.10553 14.4806 4.293 14.293L9.293 9.29303C9.48053 9.10556 9.73484 9.00024 10 9.00024C10.2652 9.00024 10.5195 9.10556 10.707 9.29303L15.707 14.293C15.8892 14.4816 15.99 14.7342 15.9877 14.9964C15.9854 15.2586 15.8802 15.5094 15.6948 15.6948C15.5094 15.8803 15.2586 15.9854 14.9964 15.9877C14.7342 15.99 14.4816 15.8892 14.293 15.707L10 11.414L5.707 15.707C5.51947 15.8945 5.26516 15.9998 5 15.9998C4.73484 15.9998 4.48053 15.8945 4.293 15.707ZM4.293 9.70703C4.10553 9.5195 4.00021 9.26519 4.00021 9.00003C4.00021 8.73487 4.10553 8.48056 4.293 8.29303L9.293 3.29303C9.48053 3.10556 9.73484 3.00024 10 3.00024C10.2652 3.00024 10.5195 3.10556 10.707 3.29303L15.707 8.29303C15.8892 8.48163 15.99 8.73423 15.9877 8.99643C15.9854 9.25863 15.8802 9.50944 15.6948 9.69485C15.5094 9.88026 15.2586 9.98543 14.9964 9.9877C14.7342 9.98998 14.4816 9.88919 14.293 9.70703L10 5.41403L5.707 9.70703C5.51947 9.8945 5.26516 9.99982 5 9.99982C4.73484 9.99982 4.48053 9.8945 4.293 9.70703Z" fill="black"/></svg>