<svg viewBox="0 0 20 20" fill="none" xmlns="http://www.w3.org/2000/svg"><path fill-rule="evenodd" clip-rule="evenodd" d="M15.707 4.29303C15.8945 4.48056 15.9998 4.73487 15.9998 5.00003C15.9998 5.26519 15.8945 5.5195 15.707 5.70703L10.707 10.707C10.5195 10.8945 10.2652 10.9998 9.99999 10.9998C9.73483 10.9998 9.48052 10.8945 9.29299 10.707L4.29299 5.70703C4.11083 5.51843 4.01004 5.26583 4.01232 5.00363C4.01459 4.74143 4.11976 4.49062 4.30517 4.30521C4.49058 4.1198 4.74139 4.01463 5.00359 4.01236C5.26579 4.01008 5.51839 4.11087 5.70699 4.29303L9.99999 8.58603L14.293 4.29303C14.4805 4.10556 14.7348 4.00024 15 4.00024C15.2652 4.00024 15.5195 4.10556 15.707 4.29303ZM15.707 10.293C15.8945 10.4806 15.9998 10.7349 15.9998 11C15.9998 11.2652 15.8945 11.5195 15.707 11.707L10.707 16.707C10.5195 16.8945 10.2652 16.9998 9.99999 16.9998C9.73483 16.9998 9.48052 16.8945 9.29299 16.707L4.29299 11.707C4.19748 11.6148 4.1213 11.5044 4.06889 11.3824C4.01648 11.2604 3.98889 11.1292 3.98774 10.9964C3.98659 10.8637 4.01189 10.732 4.06217 10.6091C4.11245 10.4862 4.1867 10.3745 4.28059 10.2806C4.37449 10.1867 4.48614 10.1125 4.60904 10.0622C4.73193 10.0119 4.86361 9.98663 4.99639 9.98778C5.12917 9.98893 5.26039 10.0165 5.38239 10.0689C5.5044 10.1213 5.61474 10.1975 5.70699 10.293L9.99999 14.586L14.293 10.293C14.4805 10.1056 14.7348 10.0002 15 10.0002C15.2652 10.0002 15.5195 10.1056 15.707 10.293Z" fill="black"/></svg>