<svg viewBox="0 0 20 20" fill="none" xmlns="http://www.w3.org/2000/svg"><path fill-rule="evenodd" clip-rule="evenodd" d="M7.293 14.707C7.10553 14.5195 7.00021 14.2651 7.00021 14C7.00021 13.7348 7.10553 13.4805 7.293 13.293L10.586 9.99998L7.293 6.70698C7.11084 6.51838 7.01005 6.26578 7.01233 6.00358C7.0146 5.74138 7.11977 5.49057 7.30518 5.30516C7.49059 5.11975 7.7414 5.01458 8.0036 5.01231C8.2658 5.01003 8.5184 5.11082 8.707 5.29298L12.707 9.29298C12.8945 9.48051 12.9998 9.73482 12.9998 9.99998C12.9998 10.2651 12.8945 10.5195 12.707 10.707L8.707 14.707C8.51947 14.8945 8.26516 14.9998 8 14.9998C7.73484 14.9998 7.48053 14.8945 7.293 14.707Z" fill="black"/></svg>