<svg viewBox="0 0 20 20" fill="none" xmlns="http://www.w3.org/2000/svg"><path fill-rule="evenodd" clip-rule="evenodd" d="M10.293 15.707C10.1055 15.5195 10.0002 15.2652 10.0002 15C10.0002 14.7349 10.1055 14.4805 10.293 14.293L14.586 10L10.293 5.70702C10.1975 5.61477 10.1213 5.50443 10.0689 5.38242C10.0165 5.26042 9.98891 5.1292 9.98775 4.99642C9.9866 4.86364 10.0119 4.73196 10.0622 4.60907C10.1125 4.48617 10.1867 4.37452 10.2806 4.28062C10.3745 4.18673 10.4862 4.11248 10.6091 4.0622C10.7319 4.01192 10.8636 3.98662 10.9964 3.98777C11.1292 3.98892 11.2604 4.01651 11.3824 4.06892C11.5044 4.12133 11.6148 4.19751 11.707 4.29302L16.707 9.29302C16.8945 9.48055 16.9998 9.73486 16.9998 10C16.9998 10.2652 16.8945 10.5195 16.707 10.707L11.707 15.707C11.5195 15.8945 11.2652 15.9998 11 15.9998C10.7348 15.9998 10.4805 15.8945 10.293 15.707Z" fill="black"/><path fill-rule="evenodd" clip-rule="evenodd" d="M4.293 15.707C4.10553 15.5195 4.00021 15.2651 4.00021 15C4.00021 14.7348 4.10553 14.4805 4.293 14.293L8.586 9.99998L4.293 5.70698C4.11084 5.51838 4.01005 5.26578 4.01233 5.00358C4.0146 4.74138 4.11977 4.49057 4.30518 4.30516C4.49059 4.11975 4.7414 4.01458 5.0036 4.01231C5.2658 4.01003 5.5184 4.11082 5.707 4.29298L10.707 9.29298C10.8945 9.48051 10.9998 9.73482 10.9998 9.99998C10.9998 10.2651 10.8945 10.5195 10.707 10.707L5.707 15.707C5.51947 15.8945 5.26516 15.9998 5 15.9998C4.73484 15.9998 4.48053 15.8945 4.293 15.707Z" fill="black"/></svg>