<svg viewBox="0 0 20 20" fill="none" xmlns="http://www.w3.org/2000/svg"><path fill-rule="evenodd" clip-rule="evenodd" d="M15.707 15.707C15.5195 15.8945 15.2652 15.9998 15 15.9998C14.7348 15.9998 14.4805 15.8945 14.293 15.707L9.293 10.707C9.10553 10.5195 9.00021 10.2652 9.00021 10C9.00021 9.73486 9.10553 9.48055 9.293 9.29302L14.293 4.29302C14.3852 4.19751 14.4956 4.12133 14.6176 4.06892C14.7396 4.01651 14.8708 3.98892 15.0036 3.98777C15.1364 3.98662 15.2681 4.01192 15.391 4.0622C15.5139 4.11248 15.6255 4.18673 15.7194 4.28062C15.8133 4.37452 15.8875 4.48617 15.9378 4.60907C15.9881 4.73196 16.0134 4.86364 16.0123 4.99642C16.0111 5.1292 15.9835 5.26042 15.9311 5.38242C15.8787 5.50443 15.8025 5.61477 15.707 5.70702L11.414 10L15.707 14.293C15.8945 14.4805 15.9998 14.7349 15.9998 15C15.9998 15.2652 15.8945 15.5195 15.707 15.707ZM9.707 15.707C9.51947 15.8945 9.26516 15.9998 9 15.9998C8.73484 15.9998 8.48053 15.8945 8.293 15.707L3.293 10.707C3.10553 10.5195 3.00021 10.2652 3.00021 10C3.00021 9.73486 3.10553 9.48055 3.293 9.29302L8.293 4.29302C8.4816 4.11086 8.7342 4.01007 8.9964 4.01235C9.2586 4.01462 9.50941 4.11979 9.69482 4.3052C9.88023 4.49061 9.9854 4.74142 9.98767 5.00362C9.98995 5.26582 9.88916 5.51842 9.707 5.70702L5.414 10L9.707 14.293C9.89447 14.4805 9.99979 14.7349 9.99979 15C9.99979 15.2652 9.89447 15.5195 9.707 15.707Z" fill="black"/></svg>