<svg viewBox="0 0 20 20" fill="none" xmlns="http://www.w3.org/2000/svg"><path d="M5.5 13C4.60453 12.9988 3.74356 12.6545 3.09427 12.0378C2.44498 11.4211 2.05676 10.579 2.00949 9.68478C1.96221 8.79055 2.25949 7.91222 2.84014 7.23051C3.42079 6.54881 4.24064 6.11559 5.131 6.02C4.86884 4.99189 5.02582 3.90174 5.56743 2.98938C6.10903 2.07702 6.99089 1.41717 8.019 1.155C9.04711 0.892838 10.1373 1.04982 11.0496 1.59143C11.962 2.13303 12.6218 3.01489 12.884 4.043C13.4954 3.95787 14.1179 3.99945 14.7126 4.16517C15.3072 4.33089 15.8615 4.6172 16.3408 5.00629C16.8201 5.39538 17.2142 5.87892 17.4986 6.42685C17.783 6.97478 17.9516 7.57537 17.994 8.19126C18.0363 8.80715 17.9515 9.42517 17.7448 10.0069C17.5381 10.5886 17.2139 11.1215 16.7924 11.5726C16.3708 12.0236 15.861 12.3831 15.2946 12.6287C14.7282 12.8742 14.1173 13.0006 13.5 13H11V9.413L12.293 10.706C12.4816 10.8882 12.7342 10.989 12.9964 10.9867C13.2586 10.9844 13.5094 10.8792 13.6948 10.6938C13.8802 10.5084 13.9854 10.2576 13.9877 9.99541C13.99 9.73321 13.8892 9.48061 13.707 9.292L10.707 6.292C10.5195 6.10453 10.2652 5.99922 10 5.99922C9.73484 5.99922 9.48053 6.10453 9.293 6.292L6.293 9.292C6.11084 9.48061 6.01005 9.73321 6.01233 9.99541C6.01461 10.2576 6.11978 10.5084 6.30518 10.6938C6.49059 10.8792 6.7414 10.9844 7.0036 10.9867C7.2658 10.989 7.5184 10.8882 7.707 10.706L9 9.414V13H5.5Z" fill="black"/><path d="M9 13H11V18C11 18.2652 10.8946 18.5196 10.7071 18.7071C10.5196 18.8946 10.2652 19 10 19C9.73478 19 9.48043 18.8946 9.29289 18.7071C9.10536 18.5196 9 18.2652 9 18V13Z" fill="black"/></svg>