<svg viewBox="0 0 20 20" fill="none" xmlns="http://www.w3.org/2000/svg"><path d="M5.5 16C4.60453 15.9988 3.74356 15.6545 3.09427 15.0378C2.44498 14.4211 2.05676 13.579 2.00948 12.6848C1.96221 11.7906 2.25948 10.9122 2.84013 10.2305C3.42078 9.54881 4.24064 9.11559 5.131 9.02C4.86883 7.99189 5.02582 6.90174 5.56743 5.98938C6.10903 5.07702 6.99089 4.41717 8.019 4.155C9.04711 3.89284 10.1373 4.04982 11.0496 4.59143C11.962 5.13303 12.6218 6.01489 12.884 7.043C13.4954 6.95787 14.1179 6.99945 14.7126 7.16517C15.3072 7.33089 15.8615 7.6172 16.3408 8.00629C16.8201 8.39538 17.2142 8.87892 17.4986 9.42685C17.783 9.97478 17.9516 10.5754 17.994 11.1913C18.0363 11.8071 17.9515 12.4252 17.7448 13.0069C17.5381 13.5886 17.2139 14.1215 16.7924 14.5726C16.3708 15.0236 15.861 15.3831 15.2946 15.6287C14.7282 15.8742 14.1173 16.0006 13.5 16H5.5Z" fill="black"/></svg>