<svg viewBox="0 0 20 20" fill="none" xmlns="http://www.w3.org/2000/svg"><path fill-rule="evenodd" clip-rule="evenodd" d="M12.316 3.05098C12.4406 3.09246 12.5559 3.15808 12.6552 3.2441C12.7544 3.33013 12.8358 3.43487 12.8946 3.55234C12.9534 3.66982 12.9884 3.79772 12.9978 3.92875C13.0071 4.05978 12.9905 4.19136 12.949 4.31598L8.949 16.316C8.86519 16.5677 8.68483 16.7758 8.4476 16.8945C8.21036 17.0132 7.93569 17.0328 7.684 16.949C7.43231 16.8652 7.22422 16.6848 7.10551 16.4476C6.9868 16.2104 6.96719 15.9357 7.051 15.684L11.051 3.68398C11.0925 3.55934 11.1581 3.44409 11.2441 3.34482C11.3301 3.24554 11.4349 3.16419 11.5524 3.10541C11.6698 3.04663 11.7977 3.01156 11.9288 3.00223C12.0598 2.99289 12.1914 3.00946 12.316 3.05098ZM5.707 6.29298C5.89447 6.48051 5.99979 6.73482 5.99979 6.99998C5.99979 7.26515 5.89447 7.51946 5.707 7.70698L3.414 9.99998L5.707 12.293C5.80251 12.3852 5.87869 12.4956 5.9311 12.6176C5.98351 12.7396 6.0111 12.8708 6.01225 13.0036C6.0134 13.1364 5.9881 13.268 5.93782 13.3909C5.88754 13.5138 5.81329 13.6255 5.7194 13.7194C5.6255 13.8133 5.51385 13.8875 5.39095 13.9378C5.26806 13.9881 5.13638 14.0134 5.0036 14.0122C4.87082 14.0111 4.7396 13.9835 4.6176 13.9311C4.49559 13.8787 4.38525 13.8025 4.293 13.707L1.293 10.707C1.10553 10.5195 1.00021 10.2651 1.00021 9.99998C1.00021 9.73482 1.10553 9.48051 1.293 9.29298L4.293 6.29298C4.48053 6.10551 4.73484 6.0002 5 6.0002C5.26516 6.0002 5.51947 6.10551 5.707 6.29298ZM14.293 6.29298C14.4805 6.10551 14.7348 6.0002 15 6.0002C15.2652 6.0002 15.5195 6.10551 15.707 6.29298L18.707 9.29298C18.8945 9.48051 18.9998 9.73482 18.9998 9.99998C18.9998 10.2651 18.8945 10.5195 18.707 10.707L15.707 13.707C15.6148 13.8025 15.5044 13.8787 15.3824 13.9311C15.2604 13.9835 15.1292 14.0111 14.9964 14.0122C14.8636 14.0134 14.7319 13.9881 14.609 13.9378C14.4861 13.8875 14.3745 13.8133 14.2806 13.7194C14.1867 13.6255 14.1125 13.5138 14.0622 13.3909C14.0119 13.268 13.9866 13.1364 13.9877 13.0036C13.9889 12.8708 14.0165 12.7396 14.0689 12.6176C14.1213 12.4956 14.1975 12.3852 14.293 12.293L16.586 9.99998L14.293 7.70698C14.1055 7.51946 14.0002 7.26515 14.0002 6.99998C14.0002 6.73482 14.1055 6.48051 14.293 6.29298Z" fill="black"/></svg>