<svg viewBox="0 0 20 20" fill="none" xmlns="http://www.w3.org/2000/svg"><path fill-rule="evenodd" clip-rule="evenodd" d="M9.504 1.13198C9.65507 1.04569 9.82603 1.00031 10 1.00031C10.174 1.00031 10.3449 1.04569 10.496 1.13198L12.246 2.13198C12.3633 2.19537 12.4667 2.28156 12.5502 2.3855C12.6337 2.48944 12.6955 2.60902 12.7321 2.73721C12.7687 2.8654 12.7793 2.99962 12.7633 3.13196C12.7473 3.26431 12.7049 3.39211 12.6388 3.50786C12.5727 3.62361 12.484 3.72497 12.3782 3.80597C12.2723 3.88697 12.1513 3.94598 12.0222 3.97953C11.8932 4.01309 11.7588 4.0205 11.6269 4.00135C11.4949 3.98219 11.3682 3.93685 11.254 3.86798L10 3.15198L8.74601 3.86798C8.63185 3.93685 8.50509 3.98219 8.37316 4.00135C8.24123 4.0205 8.1068 4.01309 7.97778 3.97953C7.84875 3.94598 7.72774 3.88697 7.62186 3.80597C7.51598 3.72497 7.42736 3.62361 7.36122 3.50786C7.29507 3.39211 7.25274 3.26431 7.23671 3.13196C7.22068 2.99962 7.23128 2.8654 7.26788 2.73721C7.30447 2.60902 7.36633 2.48944 7.44982 2.3855C7.5333 2.28156 7.63672 2.19537 7.754 2.13198L9.504 1.13198ZM5.618 4.50398C5.74948 4.73421 5.78414 5.00722 5.71439 5.263C5.64463 5.51877 5.47616 5.73638 5.246 5.86798L5.016 5.99998L5.246 6.13198C5.36329 6.19537 5.46671 6.28156 5.55019 6.3855C5.63368 6.48944 5.69554 6.60902 5.73213 6.73721C5.76873 6.8654 5.77933 6.99962 5.7633 7.13196C5.74727 7.26431 5.70494 7.39211 5.63879 7.50786C5.57265 7.62361 5.48403 7.72497 5.37815 7.80597C5.27227 7.88697 5.15126 7.94598 5.02223 7.97953C4.89321 8.01309 4.75878 8.0205 4.62685 8.00135C4.49492 7.98219 4.36816 7.93685 4.254 7.86798L4 7.72298V7.99998C4 8.2652 3.89465 8.51955 3.70711 8.70709C3.51958 8.89463 3.26522 8.99998 3 8.99998C2.73479 8.99998 2.48043 8.89463 2.2929 8.70709C2.10536 8.51955 2 8.2652 2 7.99998V5.99998C1.99945 5.82034 2.04748 5.6439 2.13902 5.48933C2.23057 5.33476 2.36221 5.20783 2.52 5.12198L4.254 4.13198C4.48423 4.00051 4.75724 3.96584 5.01302 4.0356C5.2688 4.10536 5.4864 4.27383 5.618 4.50398ZM14.382 4.50398C14.5136 4.27383 14.7312 4.10536 14.987 4.0356C15.2428 3.96584 15.5158 4.00051 15.746 4.13198L17.479 5.12198C17.6366 5.2082 17.7681 5.33519 17.8597 5.48965C17.9514 5.64411 17.9998 5.82037 18 5.99998V7.99998C18 8.2652 17.8946 8.51955 17.7071 8.70709C17.5196 8.89463 17.2652 8.99998 17 8.99998C16.7348 8.99998 16.4804 8.89463 16.2929 8.70709C16.1054 8.51955 16 8.2652 16 7.99998V7.72298L15.746 7.86798C15.6319 7.93685 15.5051 7.98219 15.3732 8.00135C15.2412 8.0205 15.1068 8.01309 14.9778 7.97953C14.8488 7.94598 14.7277 7.88697 14.6219 7.80597C14.516 7.72497 14.4274 7.62361 14.3612 7.50786C14.2951 7.39211 14.2527 7.26431 14.2367 7.13196C14.2207 6.99962 14.2313 6.8654 14.2679 6.73721C14.3045 6.60902 14.3663 6.48944 14.4498 6.3855C14.5333 6.28156 14.6367 6.19537 14.754 6.13198L14.984 5.99998L14.754 5.86798C14.5239 5.73638 14.3554 5.51877 14.2856 5.263C14.2159 5.00722 14.2505 4.73421 14.382 4.50398ZM7.382 8.50398C7.51361 8.27383 7.73121 8.10536 7.98699 8.0356C8.24277 7.96584 8.51578 8.00051 8.74601 8.13198L10 8.84798L11.254 8.13198C11.3682 8.06312 11.4949 8.01778 11.6269 7.99862C11.7588 7.97946 11.8932 7.98688 12.0222 8.02043C12.1513 8.05399 12.2723 8.113 12.3782 8.194C12.484 8.275 12.5727 8.37636 12.6388 8.4921C12.7049 8.60785 12.7473 8.73566 12.7633 8.868C12.7793 9.00035 12.7687 9.13457 12.7321 9.26276C12.6955 9.39095 12.6337 9.51053 12.5502 9.61447C12.4667 9.7184 12.3633 9.8046 12.246 9.86798L11 10.58V12C11 12.2652 10.8946 12.5196 10.7071 12.7071C10.5196 12.8946 10.2652 13 10 13C9.73479 13 9.48043 12.8946 9.2929 12.7071C9.10536 12.5196 9 12.2652 9 12V10.58L7.754 9.86798C7.52385 9.73638 7.35538 9.51877 7.28562 9.263C7.21587 9.00722 7.25053 8.73421 7.382 8.50398ZM3 11C3.26522 11 3.51958 11.1053 3.70711 11.2929C3.89465 11.4804 4 11.7348 4 12V13.42L5.246 14.132C5.36329 14.1954 5.46671 14.2816 5.55019 14.3855C5.63368 14.4894 5.69554 14.609 5.73213 14.7372C5.76873 14.8654 5.77933 14.9996 5.7633 15.132C5.74727 15.2643 5.70494 15.3921 5.63879 15.5079C5.57265 15.6236 5.48403 15.725 5.37815 15.806C5.27227 15.887 5.15126 15.946 5.02223 15.9795C4.89321 16.0131 4.75878 16.0205 4.62685 16.0013C4.49492 15.9822 4.36816 15.9368 4.254 15.868L2.504 14.868C2.35095 14.7806 2.22372 14.6542 2.13522 14.5018C2.04671 14.3494 2.00006 14.1762 2 14V12C2 11.7348 2.10536 11.4804 2.2929 11.2929C2.48043 11.1053 2.73479 11 3 11ZM17 11C17.2652 11 17.5196 11.1053 17.7071 11.2929C17.8946 11.4804 18 11.7348 18 12V14C17.9999 14.1762 17.9533 14.3494 17.8648 14.5018C17.7763 14.6542 17.6491 14.7806 17.496 14.868L15.746 15.868C15.6319 15.9368 15.5051 15.9822 15.3732 16.0013C15.2412 16.0205 15.1068 16.0131 14.9778 15.9795C14.8488 15.946 14.7277 15.887 14.6219 15.806C14.516 15.725 14.4274 15.6236 14.3612 15.5079C14.2951 15.3921 14.2527 15.2643 14.2367 15.132C14.2207 14.9996 14.2313 14.8654 14.2679 14.7372C14.3045 14.609 14.3663 14.4894 14.4498 14.3855C14.5333 14.2816 14.6367 14.1954 14.754 14.132L16 13.42V12C16 11.7348 16.1054 11.4804 16.2929 11.2929C16.4804 11.1053 16.7348 11 17 11ZM7.382 16.504C7.51361 16.2738 7.73121 16.1054 7.98699 16.0356C8.24277 15.9658 8.51578 16.0005 8.74601 16.132L9 16.277V16C9 15.7348 9.10536 15.4804 9.2929 15.2929C9.48043 15.1053 9.73479 15 10 15C10.2652 15 10.5196 15.1053 10.7071 15.2929C10.8946 15.4804 11 15.7348 11 16V16.277L11.254 16.132C11.3682 16.0631 11.4949 16.0178 11.6269 15.9986C11.7588 15.9795 11.8932 15.9869 12.0222 16.0204C12.1513 16.054 12.2723 16.113 12.3782 16.194C12.484 16.275 12.5727 16.3764 12.6388 16.4921C12.7049 16.6079 12.7473 16.7357 12.7633 16.868C12.7793 17.0004 12.7687 17.1346 12.7321 17.2628C12.6955 17.3909 12.6337 17.5105 12.5502 17.6145C12.4667 17.7184 12.3633 17.8046 12.246 17.868L10.511 18.86C10.3566 18.9524 10.18 19.0012 10 19.0012C9.82003 19.0012 9.64343 18.9524 9.48901 18.86L7.754 17.868C7.52385 17.7364 7.35538 17.5188 7.28562 17.263C7.21587 17.0072 7.25053 16.7342 7.382 16.504Z" fill="black"/></svg>