<svg viewBox="0 0 20 20" fill="none" xmlns="http://www.w3.org/2000/svg"><path d="M4 4C4 3.46957 4.21071 2.96086 4.58579 2.58579C4.96086 2.21071 5.46957 2 6 2H10.586C11.1164 2.00011 11.625 2.2109 12 2.586L15.414 6C15.7891 6.37499 15.9999 6.88361 16 7.414V16C16 16.5304 15.7893 17.0391 15.4142 17.4142C15.0391 17.7893 14.5304 18 14 18H12.472C13.4938 16.8569 14.0393 15.366 13.9964 13.8334C13.9535 12.3008 13.3255 10.8428 12.2414 9.75864C11.1572 8.6745 9.69917 8.04652 8.16657 8.00363C6.63396 7.96074 5.14308 8.50619 4 9.528V4Z" fill="black"/><path fill-rule="evenodd" clip-rule="evenodd" d="M7.99999 10C7.29465 9.9999 6.60183 10.1863 5.99177 10.5403C5.38171 10.8943 4.87611 11.4034 4.52623 12.0158C4.17635 12.6283 3.99464 13.3223 3.99951 14.0276C4.00439 14.733 4.19568 15.4245 4.55399 16.032L3.29299 17.292C3.20008 17.3848 3.12637 17.4951 3.07606 17.6164C3.02575 17.7377 2.99983 17.8678 2.99979 17.9991C2.99974 18.1305 3.02557 18.2606 3.07579 18.3819C3.12601 18.5033 3.19964 18.6136 3.29249 18.7065C3.38533 18.7994 3.49557 18.8731 3.6169 18.9234C3.73823 18.9737 3.86829 18.9997 3.99964 18.9997C4.13098 18.9997 4.26106 18.9739 4.38242 18.9237C4.50379 18.8735 4.61408 18.7998 4.70699 18.707L5.96799 17.446C6.49783 17.7583 7.09255 17.9442 7.70593 17.9892C8.3193 18.0343 8.93481 17.9373 9.5046 17.7058C10.0744 17.4743 10.5831 17.1146 10.9913 16.6545C11.3994 16.1944 11.696 15.6464 11.8579 15.0531C12.0198 14.4598 12.0427 13.8371 11.9249 13.2335C11.807 12.6298 11.5516 12.0615 11.1783 11.5727C10.8051 11.0838 10.3242 10.6876 9.77296 10.4149C9.22172 10.1421 8.61502 10.0001 7.99999 10ZM5.99999 14C5.99999 13.4696 6.2107 12.9609 6.58578 12.5858C6.96085 12.2107 7.46956 12 7.99999 12C8.53042 12 9.03913 12.2107 9.4142 12.5858C9.78928 12.9609 9.99999 13.4696 9.99999 14C9.99999 14.5304 9.78928 15.0391 9.4142 15.4142C9.03913 15.7893 8.53042 16 7.99999 16C7.46956 16 6.96085 15.7893 6.58578 15.4142C6.2107 15.0391 5.99999 14.5304 5.99999 14Z" fill="black"/></svg>