<svg viewBox="0 0 20 20" fill="none" xmlns="http://www.w3.org/2000/svg"><path fill-rule="evenodd" clip-rule="evenodd" d="M8.257 3.09901C9.022 1.73901 10.979 1.73901 11.743 3.09901L17.323 13.019C18.073 14.353 17.11 15.999 15.581 15.999H4.42C2.89 15.999 1.927 14.353 2.677 13.019L8.257 3.09901ZM11 13C11 13.2652 10.8946 13.5196 10.7071 13.7071C10.5196 13.8947 10.2652 14 10 14C9.73478 14 9.48043 13.8947 9.29289 13.7071C9.10536 13.5196 9 13.2652 9 13C9 12.7348 9.10536 12.4804 9.29289 12.2929C9.48043 12.1054 9.73478 12 10 12C10.2652 12 10.5196 12.1054 10.7071 12.2929C10.8946 12.4804 11 12.7348 11 13ZM10 5.00001C9.73478 5.00001 9.48043 5.10537 9.29289 5.2929C9.10536 5.48044 9 5.73479 9 6.00001V9.00001C9 9.26523 9.10536 9.51958 9.29289 9.70712C9.48043 9.89465 9.73478 10 10 10C10.2652 10 10.5196 9.89465 10.7071 9.70712C10.8946 9.51958 11 9.26523 11 9.00001V6.00001C11 5.73479 10.8946 5.48044 10.7071 5.2929C10.5196 5.10537 10.2652 5.00001 10 5.00001Z" fill="black"/></svg>