<svg viewBox="0 0 20 20" fill="none" xmlns="http://www.w3.org/2000/svg"><path d="M10.707 2.293C10.5195 2.10553 10.2652 2.00021 10 2.00021C9.73483 2.00021 9.48052 2.10553 9.293 2.293L2.293 9.293C2.11084 9.4816 2.01004 9.7342 2.01232 9.9964C2.0146 10.2586 2.11977 10.5094 2.30518 10.6948C2.49058 10.8802 2.7414 10.9854 3.00359 10.9877C3.26579 10.99 3.51839 10.8892 3.707 10.707L4 10.414V17C4 17.2652 4.10535 17.5196 4.29289 17.7071C4.48043 17.8946 4.73478 18 5 18H7C7.26521 18 7.51957 17.8946 7.7071 17.7071C7.89464 17.5196 8 17.2652 8 17V15C8 14.7348 8.10535 14.4804 8.29289 14.2929C8.48042 14.1054 8.73478 14 9 14H11C11.2652 14 11.5196 14.1054 11.7071 14.2929C11.8946 14.4804 12 14.7348 12 15V17C12 17.2652 12.1054 17.5196 12.2929 17.7071C12.4804 17.8946 12.7348 18 13 18H15C15.2652 18 15.5196 17.8946 15.7071 17.7071C15.8946 17.5196 16 17.2652 16 17V10.414L16.293 10.707C16.4816 10.8892 16.7342 10.99 16.9964 10.9877C17.2586 10.9854 17.5094 10.8802 17.6948 10.6948C17.8802 10.5094 17.9854 10.2586 17.9877 9.9964C17.9899 9.7342 17.8892 9.4816 17.707 9.293L10.707 2.293Z" fill="black"/></svg>