<svg viewBox="0 0 20 20" fill="none" xmlns="http://www.w3.org/2000/svg"><path fill-rule="evenodd" clip-rule="evenodd" d="M10.496 2.13201C10.3449 2.04572 10.174 2.00034 10 2.00034C9.82603 2.00034 9.65506 2.04572 9.504 2.13201L2.504 6.13201C2.31267 6.24147 2.16287 6.41107 2.07788 6.61446C1.99289 6.81784 1.97749 7.0436 2.03405 7.25665C2.09062 7.46969 2.216 7.65807 2.39068 7.79251C2.56537 7.92694 2.77957 7.99989 3 8.00001V15C2.73478 15 2.48043 15.1054 2.29289 15.2929C2.10536 15.4804 2 15.7348 2 16C2 16.2652 2.10536 16.5196 2.29289 16.7071C2.48043 16.8947 2.73478 17 3 17H17C17.2652 17 17.5196 16.8947 17.7071 16.7071C17.8946 16.5196 18 16.2652 18 16C18 15.7348 17.8946 15.4804 17.7071 15.2929C17.5196 15.1054 17.2652 15 17 15V8.00001C17.2204 7.99989 17.4346 7.92694 17.6093 7.79251C17.784 7.65807 17.9094 7.46969 17.9659 7.25665C18.0225 7.0436 18.0071 6.81784 17.9221 6.61446C17.8371 6.41107 17.6873 6.24147 17.496 6.13201L10.496 2.13201ZM6 9.00001C5.73478 9.00001 5.48043 9.10537 5.29289 9.29291C5.10536 9.48044 5 9.7348 5 10V13C5 13.2652 5.10536 13.5196 5.29289 13.7071C5.48043 13.8947 5.73478 14 6 14C6.26522 14 6.51957 13.8947 6.70711 13.7071C6.89464 13.5196 7 13.2652 7 13V10C7 9.7348 6.89464 9.48044 6.70711 9.29291C6.51957 9.10537 6.26522 9.00001 6 9.00001ZM9 10C9 9.7348 9.10536 9.48044 9.29289 9.29291C9.48043 9.10537 9.73478 9.00001 10 9.00001C10.2652 9.00001 10.5196 9.10537 10.7071 9.29291C10.8946 9.48044 11 9.7348 11 10V13C11 13.2652 10.8946 13.5196 10.7071 13.7071C10.5196 13.8947 10.2652 14 10 14C9.73478 14 9.48043 13.8947 9.29289 13.7071C9.10536 13.5196 9 13.2652 9 13V10ZM14 9.00001C13.7348 9.00001 13.4804 9.10537 13.2929 9.29291C13.1054 9.48044 13 9.7348 13 10V13C13 13.2652 13.1054 13.5196 13.2929 13.7071C13.4804 13.8947 13.7348 14 14 14C14.2652 14 14.5196 13.8947 14.7071 13.7071C14.8946 13.5196 15 13.2652 15 13V10C15 9.7348 14.8946 9.48044 14.7071 9.29291C14.5196 9.10537 14.2652 9.00001 14 9.00001Z" fill="black"/></svg>