<svg viewBox="0 0 20 20" fill="none" xmlns="http://www.w3.org/2000/svg"><path fill-rule="evenodd" clip-rule="evenodd" d="M11.3 1.04599C11.503 1.10983 11.6803 1.23677 11.8062 1.40834C11.9321 1.57992 12 1.78718 12 1.99999V6.99999H16C16.1829 6.9999 16.3623 7.05 16.5188 7.14481C16.6752 7.23962 16.8026 7.37553 16.8872 7.53773C16.9717 7.69993 17.0102 7.88222 16.9983 8.06475C16.9865 8.24729 16.9248 8.42307 16.82 8.57299L9.81999 18.573C9.69816 18.7475 9.52382 18.8786 9.32233 18.9472C9.12084 19.0159 8.90271 19.0184 8.69968 18.9545C8.49666 18.8905 8.31932 18.7635 8.19348 18.5918C8.06764 18.4202 7.99985 18.2128 7.99999 18V13H3.99999C3.81707 13.0001 3.63763 12.95 3.4812 12.8552C3.32478 12.7603 3.19735 12.6244 3.1128 12.4622C3.02824 12.3 2.9898 12.1178 3.00164 11.9352C3.01349 11.7527 3.07518 11.5769 3.17999 11.427L10.18 1.42699C10.302 1.25277 10.4764 1.122 10.6778 1.05366C10.8792 0.985326 11.0972 0.982987 11.3 1.04699V1.04599Z" fill="black"/></svg>