<svg viewBox="0 0 20 20" fill="none" xmlns="http://www.w3.org/2000/svg"><path fill-rule="evenodd" clip-rule="evenodd" d="M12.586 4.58601C12.7705 4.39499 12.9912 4.24263 13.2352 4.13781C13.4792 4.03299 13.7416 3.97782 14.0072 3.97551C14.2728 3.9732 14.5361 4.02381 14.7819 4.12437C15.0277 4.22493 15.251 4.37344 15.4388 4.56122C15.6266 4.74901 15.7751 4.97231 15.8756 5.2181C15.9762 5.4639 16.0268 5.72726 16.0245 5.99281C16.0222 6.25837 15.967 6.52081 15.8622 6.76482C15.7574 7.00883 15.605 7.22952 15.414 7.41401L12.414 10.414C12.0389 10.789 11.5303 10.9996 11 10.9996C10.4697 10.9996 9.96106 10.789 9.586 10.414C9.3974 10.2319 9.1448 10.1311 8.8826 10.1333C8.62041 10.1356 8.36959 10.2408 8.18419 10.4262C7.99878 10.6116 7.89361 10.8624 7.89133 11.1246C7.88905 11.3868 7.98985 11.6394 8.172 11.828C8.92211 12.5779 9.93935 12.9992 11 12.9992C12.0607 12.9992 13.0779 12.5779 13.828 11.828L16.828 8.82801C17.5566 8.0736 17.9598 7.06319 17.9507 6.01441C17.9416 4.96562 17.5209 3.96237 16.7793 3.22074C16.0376 2.4791 15.0344 2.05843 13.9856 2.04932C12.9368 2.0402 11.9264 2.44338 11.172 3.17201L9.672 4.67201C9.57649 4.76426 9.50031 4.8746 9.4479 4.99661C9.39549 5.11861 9.36791 5.24983 9.36675 5.38261C9.3656 5.51539 9.3909 5.64707 9.44118 5.76997C9.49146 5.89286 9.56572 6.00451 9.65961 6.09841C9.7535 6.1923 9.86515 6.26655 9.98805 6.31683C10.1109 6.36711 10.2426 6.39242 10.3754 6.39126C10.5082 6.39011 10.6394 6.36252 10.7614 6.31011C10.8834 6.2577 10.9938 6.18152 11.086 6.08601L12.586 4.58601ZM7.586 9.58601C7.96106 9.21107 8.46968 9.00044 9 9.00044C9.53033 9.00044 10.0389 9.21107 10.414 9.58601C10.5063 9.68152 10.6166 9.7577 10.7386 9.81011C10.8606 9.86252 10.9918 9.89011 11.1246 9.89126C11.2574 9.89242 11.3891 9.86711 11.512 9.81683C11.6349 9.76655 11.7465 9.6923 11.8404 9.59841C11.9343 9.50451 12.0085 9.39286 12.0588 9.26997C12.1091 9.14707 12.1344 9.01539 12.1333 8.88261C12.1321 8.74983 12.1045 8.61861 12.0521 8.49661C11.9997 8.3746 11.9235 8.26426 11.828 8.17201C11.0779 7.42213 10.0607 7.00087 9 7.00087C7.93935 7.00087 6.92211 7.42213 6.172 8.17201L3.172 11.172C2.78996 11.541 2.48523 11.9824 2.2756 12.4704C2.06596 12.9584 1.95562 13.4833 1.951 14.0144C1.94639 14.5455 2.04759 15.0722 2.24872 15.5638C2.44984 16.0554 2.74685 16.502 3.12242 16.8776C3.498 17.2532 3.9446 17.5502 4.43619 17.7513C4.92777 17.9524 5.45449 18.0536 5.98561 18.049C6.51673 18.0444 7.04161 17.9341 7.52962 17.7244C8.01764 17.5148 8.45902 17.2101 8.828 16.828L10.328 15.328C10.4235 15.2358 10.4997 15.1254 10.5521 15.0034C10.6045 14.8814 10.6321 14.7502 10.6333 14.6174C10.6344 14.4846 10.6091 14.353 10.5588 14.2301C10.5085 14.1072 10.4343 13.9955 10.3404 13.9016C10.2465 13.8077 10.1349 13.7335 10.012 13.6832C9.88906 13.6329 9.75738 13.6076 9.6246 13.6088C9.49182 13.6099 9.3606 13.6375 9.2386 13.6899C9.1166 13.7423 9.00625 13.8185 8.914 13.914L7.414 15.414C7.22951 15.605 7.00882 15.7574 6.76481 15.8622C6.52081 15.967 6.25837 16.0222 5.99281 16.0245C5.72725 16.0268 5.46389 15.9762 5.2181 15.8757C4.9723 15.7751 4.749 15.6266 4.56121 15.4388C4.37343 15.251 4.22492 15.0277 4.12436 14.7819C4.0238 14.5361 3.9732 14.2728 3.9755 14.0072C3.97781 13.7417 4.03298 13.4792 4.1378 13.2352C4.24262 12.9912 4.39498 12.7705 4.586 12.586L7.586 9.58601Z" fill="black"/></svg>