<svg viewBox="0 0 20 20" fill="none" xmlns="http://www.w3.org/2000/svg"><path fill-rule="evenodd" clip-rule="evenodd" d="M5.05 4.04999C6.36282 2.73717 8.14339 1.99963 10 1.99963C11.8566 1.99963 13.6372 2.73717 14.95 4.04999C16.2628 5.36281 17.0004 7.14338 17.0004 8.99999C17.0004 10.8566 16.2628 12.6372 14.95 13.95L10 18.9L5.05 13.95C4.39992 13.3 3.88424 12.5283 3.53241 11.6789C3.18058 10.8296 2.9995 9.9193 2.9995 8.99999C2.9995 8.08068 3.18058 7.17037 3.53241 6.32104C3.88424 5.47172 4.39992 4.70001 5.05 4.04999ZM10 11C10.5304 11 11.0391 10.7893 11.4142 10.4142C11.7893 10.0391 12 9.53042 12 8.99999C12 8.46956 11.7893 7.96085 11.4142 7.58578C11.0391 7.2107 10.5304 6.99999 10 6.99999C9.46957 6.99999 8.96086 7.2107 8.58579 7.58578C8.21072 7.96085 8 8.46956 8 8.99999C8 9.53042 8.21072 10.0391 8.58579 10.4142C8.96086 10.7893 9.46957 11 10 11Z" fill="black"/></svg>