<svg viewBox="0 0 20 20" fill="none" xmlns="http://www.w3.org/2000/svg"><path d="M10.894 2.553C10.8109 2.38712 10.6832 2.24764 10.5253 2.15017C10.3674 2.05269 10.1856 2.00107 10 2.00107C9.81446 2.00107 9.63257 2.05269 9.47468 2.15017C9.3168 2.24764 9.18915 2.38712 9.10601 2.553L2.10601 16.553C2.01915 16.7266 1.98469 16.9217 2.00683 17.1145C2.02897 17.3074 2.10676 17.4896 2.2307 17.639C2.35464 17.7884 2.51937 17.8985 2.70481 17.9558C2.89025 18.0132 3.08837 18.0153 3.27501 17.962L8.27501 16.533C8.48398 16.4732 8.66779 16.347 8.79861 16.1734C8.92943 15.9998 9.00013 15.7884 9.00001 15.571V11C9.00001 10.7348 9.10536 10.4804 9.2929 10.2929C9.48044 10.1054 9.73479 10 10 10C10.2652 10 10.5196 10.1054 10.7071 10.2929C10.8946 10.4804 11 10.7348 11 11V15.571C10.9999 15.7884 11.0706 15.9998 11.2014 16.1734C11.3322 16.347 11.516 16.4732 11.725 16.533L16.725 17.961C16.9116 18.0144 17.1097 18.0124 17.2951 17.9552C17.4806 17.898 17.6454 17.788 17.7694 17.6387C17.8934 17.4895 17.9714 17.3073 17.9937 17.1146C18.016 16.9218 17.9817 16.7266 17.895 16.553L10.895 2.553H10.894Z" fill="black"/></svg>