<svg viewBox="0 0 20 20" fill="none" xmlns="http://www.w3.org/2000/svg"><path fill-rule="evenodd" clip-rule="evenodd" d="M7.707 3.293C7.89447 3.48053 7.99979 3.73484 7.99979 4C7.99979 4.26516 7.89447 4.51947 7.707 4.707L5.414 7H11C12.8565 7 14.637 7.7375 15.9497 9.05025C17.2625 10.363 18 12.1435 18 14V16C18 16.2652 17.8946 16.5196 17.7071 16.7071C17.5196 16.8946 17.2652 17 17 17C16.7348 17 16.4804 16.8946 16.2929 16.7071C16.1054 16.5196 16 16.2652 16 16V14C16 12.6739 15.4732 11.4021 14.5355 10.4645C13.5979 9.52678 12.3261 9 11 9H5.414L7.707 11.293C7.80251 11.3852 7.87869 11.4956 7.9311 11.6176C7.98351 11.7396 8.0111 11.8708 8.01225 12.0036C8.0134 12.1364 7.9881 12.2681 7.93782 12.391C7.88754 12.5139 7.81329 12.6255 7.7194 12.7194C7.6255 12.8133 7.51385 12.8875 7.39095 12.9378C7.26806 12.9881 7.13638 13.0134 7.0036 13.0123C6.87082 13.0111 6.7396 12.9835 6.6176 12.9311C6.49559 12.8787 6.38525 12.8025 6.293 12.707L2.293 8.707C2.10553 8.51947 2.00021 8.26516 2.00021 8C2.00021 7.73484 2.10553 7.48053 2.293 7.293L6.293 3.293C6.48053 3.10553 6.73484 3.00021 7 3.00021C7.26516 3.00021 7.51947 3.10553 7.707 3.293Z" fill="black"/></svg>