<svg viewBox="0 0 20 20" fill="none" xmlns="http://www.w3.org/2000/svg"><path d="M8.445 14.832C8.5956 14.9325 8.77065 14.9902 8.95148 14.999C9.13231 15.0078 9.31213 14.9673 9.47176 14.8819C9.63139 14.7965 9.76484 14.6693 9.85787 14.514C9.9509 14.3587 10 14.181 10 14V11.202L15.445 14.832C15.5956 14.9325 15.7707 14.9902 15.9515 14.999C16.1323 15.0078 16.3121 14.9673 16.4718 14.8819C16.6314 14.7965 16.7648 14.6693 16.8579 14.514C16.9509 14.3587 17 14.181 17 14V6C17 5.81895 16.9509 5.6413 16.8579 5.48599C16.7648 5.33068 16.6314 5.20353 16.4718 5.11812C16.3121 5.03271 16.1323 4.99224 15.9515 5.00103C15.7707 5.00981 15.5956 5.06752 15.445 5.168L10 8.798V6C10 5.81895 9.9509 5.6413 9.85787 5.48599C9.76484 5.33068 9.63139 5.20353 9.47176 5.11812C9.31213 5.03271 9.13231 4.99224 8.95148 5.00103C8.77065 5.00981 8.5956 5.06752 8.445 5.168L2.445 9.168C2.30804 9.25932 2.19575 9.38304 2.11808 9.52818C2.04041 9.67332 1.99977 9.83538 1.99977 10C1.99977 10.1646 2.04041 10.3267 2.11808 10.4718C2.19575 10.617 2.30804 10.7407 2.445 10.832L8.445 14.832Z" fill="black"/></svg>