<svg viewBox="0 0 20 20" fill="none" xmlns="http://www.w3.org/2000/svg"><path fill-rule="evenodd" clip-rule="evenodd" d="M10 2C10.2652 2 10.5196 2.10536 10.7071 2.29289C10.8946 2.48043 11 2.73478 11 3V4.323L14.954 5.905L16.553 5.105C16.7904 4.98645 17.0651 4.96705 17.3168 5.05106C17.5685 5.13508 17.7765 5.31563 17.895 5.553C18.0136 5.79037 18.033 6.06511 17.9489 6.31678C17.8649 6.56846 17.6844 6.77645 17.447 6.895L16.214 7.511L17.952 12.931C18.0109 13.1149 18.0154 13.3118 17.9648 13.4982C17.9142 13.6845 17.8108 13.8522 17.667 13.981C16.9342 14.6381 15.9843 15.001 15 15C14.0157 15.001 13.0658 14.6381 12.333 13.981C12.1892 13.8522 12.0858 13.6845 12.0352 13.4982C11.9846 13.3118 11.9891 13.1149 12.048 12.931L13.763 7.582L11 6.477V16H13C13.2652 16 13.5196 16.1054 13.7071 16.2929C13.8946 16.4804 14 16.7348 14 17C14 17.2652 13.8946 17.5196 13.7071 17.7071C13.5196 17.8946 13.2652 18 13 18H7C6.73479 18 6.48043 17.8946 6.2929 17.7071C6.10536 17.5196 6 17.2652 6 17C6 16.7348 6.10536 16.4804 6.2929 16.2929C6.48043 16.1054 6.73479 16 7 16H9V6.477L6.237 7.582L7.952 12.931C8.01092 13.1149 8.01537 13.3118 7.9648 13.4982C7.91422 13.6845 7.81079 13.8522 7.667 13.981C6.93417 14.6381 5.98427 15.001 5 15C4.01573 15.001 3.06584 14.6381 2.333 13.981C2.18921 13.8522 2.08578 13.6845 2.03521 13.4982C1.98464 13.3118 1.98908 13.1149 2.048 12.931L3.786 7.511L2.553 6.894C2.32427 6.77066 2.15254 6.56312 2.07419 6.31535C1.99583 6.06758 2.017 5.79904 2.13322 5.56661C2.24943 5.33418 2.45156 5.15611 2.69679 5.07014C2.94202 4.98416 3.21109 4.99702 3.447 5.106L5.046 5.905L9 4.323V3C9 2.73478 9.10536 2.48043 9.2929 2.29289C9.48043 2.10536 9.73479 2 10 2ZM5 10.274L4.182 12.826C4.432 12.938 4.708 13 5 13C5.292 13 5.569 12.938 5.818 12.826L5 10.274ZM15 10.274L14.182 12.826C14.432 12.938 14.708 13 15 13C15.292 13 15.569 12.938 15.818 12.826L15 10.274Z" fill="black"/></svg>