<svg viewBox="0 0 20 20" fill="none" xmlns="http://www.w3.org/2000/svg"><path fill-rule="evenodd" clip-rule="evenodd" d="M10 3C10.2652 3.00006 10.5195 3.10545 10.707 3.293L13.707 6.293C13.8892 6.4816 13.99 6.7342 13.9877 6.9964C13.9854 7.2586 13.8802 7.50941 13.6948 7.69482C13.5094 7.88023 13.2586 7.9854 12.9964 7.98767C12.7342 7.98995 12.4816 7.88916 12.293 7.707L10 5.414L7.707 7.707C7.5184 7.88916 7.2658 7.98995 7.0036 7.98767C6.7414 7.9854 6.49059 7.88023 6.30518 7.69482C6.11977 7.50941 6.0146 7.2586 6.01233 6.9964C6.01005 6.7342 6.11084 6.4816 6.293 6.293L9.293 3.293C9.48049 3.10545 9.73481 3.00006 10 3ZM6.293 12.293C6.48053 12.1055 6.73484 12.0002 7 12.0002C7.26516 12.0002 7.51947 12.1055 7.707 12.293L10 14.586L12.293 12.293C12.4816 12.1108 12.7342 12.01 12.9964 12.0123C13.2586 12.0146 13.5094 12.1198 13.6948 12.3052C13.8802 12.4906 13.9854 12.7414 13.9877 13.0036C13.99 13.2658 13.8892 13.5184 13.707 13.707L10.707 16.707C10.5195 16.8945 10.2652 16.9998 10 16.9998C9.73484 16.9998 9.48053 16.8945 9.293 16.707L6.293 13.707C6.10553 13.5195 6.00021 13.2652 6.00021 13C6.00021 12.7348 6.10553 12.4805 6.293 12.293Z" fill="black"/></svg>