<svg viewBox="0 0 20 20" fill="none" xmlns="http://www.w3.org/2000/svg"><path d="M3.707 2.293C3.5184 2.11084 3.26579 2.01005 3.0036 2.01232C2.7414 2.0146 2.49059 2.11977 2.30518 2.30518C2.11977 2.49059 2.0146 2.7414 2.01233 3.0036C2.01005 3.26579 2.11084 3.5184 2.293 3.707L9.214 10.629C9.264 10.691 9.319 10.747 9.382 10.796L16.292 17.707C16.3848 17.7999 16.4951 17.8736 16.6164 17.9239C16.7377 17.9742 16.8678 18.0002 16.9991 18.0002C17.1305 18.0002 17.2606 17.9744 17.3819 17.9242C17.5033 17.874 17.6136 17.8003 17.7065 17.7075C17.7994 17.6147 17.8731 17.5044 17.9234 17.3831C17.9737 17.2618 17.9997 17.1317 17.9997 17.0004C17.9997 16.869 17.9739 16.7389 17.9237 16.6176C17.8735 16.4962 17.7998 16.3859 17.707 16.293L17.032 15.618C18.4137 13.8882 19.1094 11.7099 18.9862 9.49943C18.8629 7.28899 17.9294 5.20149 16.364 3.636C16.2718 3.54049 16.1614 3.46431 16.0394 3.4119C15.9174 3.35949 15.7862 3.3319 15.6534 3.33075C15.5206 3.32959 15.3889 3.3549 15.266 3.40518C15.1431 3.45546 15.0315 3.52971 14.9376 3.6236C14.8437 3.7175 14.7695 3.82915 14.7192 3.95204C14.6689 4.07494 14.6436 4.20662 14.6447 4.3394C14.6459 4.47218 14.6735 4.6034 14.7259 4.7254C14.7783 4.84741 14.8545 4.95775 14.95 5.05C16.1403 6.24045 16.8619 7.81991 16.9826 9.49905C17.1032 11.1782 16.6149 12.8446 15.607 14.193L14.172 12.758C14.8074 11.7963 15.0912 10.6446 14.9753 9.49769C14.8594 8.35082 14.351 7.27917 13.536 6.464C13.3482 6.27623 13.0936 6.17074 12.828 6.17074C12.5624 6.17074 12.3078 6.27623 12.12 6.464C11.9322 6.65177 11.8267 6.90645 11.8267 7.172C11.8267 7.43755 11.9322 7.69223 12.12 7.88C13.044 8.803 13.24 10.18 12.707 11.295L10.715 9.303C10.7091 9.29692 10.7031 9.29092 10.697 9.285L3.707 2.294V2.293ZM3.238 8.187C3.30643 7.93067 3.27022 7.65765 3.13735 7.42801C3.00448 7.19838 2.78583 7.03092 2.5295 6.9625C2.27317 6.89407 2.00015 6.93028 1.77051 7.06315C1.54088 7.19602 1.37343 7.41467 1.305 7.671C0.504999 10.671 1.28 14.007 3.636 16.364C3.72891 16.4568 3.8392 16.5305 3.96057 16.5807C4.08193 16.6309 4.212 16.6567 4.34335 16.6567C4.4747 16.6567 4.60475 16.6307 4.72609 16.5804C4.84742 16.5301 4.95765 16.4564 5.0505 16.3635C5.14334 16.2706 5.21698 16.1603 5.2672 16.0389C5.31742 15.9176 5.34325 15.7875 5.3432 15.6561C5.34316 15.5248 5.31724 15.3947 5.26693 15.2734C5.21662 15.1521 5.14291 15.0418 5.05 14.949C4.18074 14.0803 3.55562 12.998 3.23753 11.8109C2.91944 10.6239 2.9196 9.37397 3.238 8.187ZM7.4 11.5C7.33748 11.3805 7.25144 11.2749 7.14705 11.1895C7.04265 11.1041 6.92206 11.0407 6.79254 11.0031C6.66301 10.9655 6.52722 10.9546 6.39333 10.9708C6.25945 10.9871 6.13024 11.0303 6.01347 11.0978C5.89671 11.1652 5.7948 11.2557 5.71388 11.3636C5.63297 11.4715 5.57472 11.5946 5.54263 11.7256C5.51054 11.8566 5.50528 11.9927 5.52717 12.1258C5.54906 12.2589 5.59765 12.3862 5.67 12.5C5.884 12.871 6.15 13.22 6.465 13.535C6.6536 13.7172 6.9062 13.818 7.1684 13.8157C7.4306 13.8134 7.68141 13.7082 7.86682 13.5228C8.05223 13.3374 8.15739 13.0866 8.15967 12.8244C8.16195 12.5622 8.06116 12.3096 7.879 12.121C7.688 11.93 7.529 11.721 7.401 11.499L7.4 11.5Z" fill="black"/></svg>