<svg viewBox="0 0 20 20" fill="none" xmlns="http://www.w3.org/2000/svg"><path fill-rule="evenodd" clip-rule="evenodd" d="M5.05 3.636C5.23747 3.82353 5.34279 4.07783 5.34279 4.343C5.34279 4.60816 5.23747 4.86247 5.05 5.05C4.39991 5.70002 3.88423 6.47172 3.53241 7.32105C3.18058 8.17038 2.99949 9.08069 2.99949 10C2.99949 10.9193 3.18058 11.8296 3.53241 12.6789C3.88423 13.5283 4.39991 14.3 5.05 14.95C5.14551 15.0422 5.22169 15.1526 5.2741 15.2746C5.32651 15.3966 5.3541 15.5278 5.35525 15.6606C5.3564 15.7934 5.3311 15.9251 5.28082 16.048C5.23054 16.1708 5.15629 16.2825 5.0624 16.3764C4.9685 16.4703 4.85685 16.5445 4.73395 16.5948C4.61106 16.6451 4.47938 16.6704 4.3466 16.6692C4.21382 16.6681 4.0826 16.6405 3.9606 16.5881C3.83859 16.5357 3.72825 16.4595 3.636 16.364C2.80026 15.5283 2.13732 14.5361 1.68502 13.4442C1.23272 12.3522 0.999922 11.1819 0.999922 10C0.999922 8.81809 1.23272 7.64776 1.68502 6.55582C2.13732 5.46388 2.80026 4.47173 3.636 3.636C3.82353 3.44853 4.07784 3.34321 4.343 3.34321C4.60816 3.34321 4.86247 3.44853 5.05 3.636ZM14.95 3.636C15.1375 3.44853 15.3918 3.34321 15.657 3.34321C15.9222 3.34321 16.1765 3.44853 16.364 3.636C17.1997 4.47173 17.8627 5.46388 18.315 6.55582C18.7673 7.64776 19.0001 8.81809 19.0001 10C19.0001 11.1819 18.7673 12.3522 18.315 13.4442C17.8627 14.5361 17.1997 15.5283 16.364 16.364C16.2718 16.4595 16.1614 16.5357 16.0394 16.5881C15.9174 16.6405 15.7862 16.6681 15.6534 16.6692C15.5206 16.6704 15.3889 16.6451 15.266 16.5948C15.1431 16.5445 15.0315 16.4703 14.9376 16.3764C14.8437 16.2825 14.7695 16.1708 14.7192 16.048C14.6689 15.9251 14.6436 15.7934 14.6447 15.6606C14.6459 15.5278 14.6735 15.3966 14.7259 15.2746C14.7783 15.1526 14.8545 15.0422 14.95 14.95C15.6001 14.3 16.1158 13.5283 16.4676 12.6789C16.8194 11.8296 17.0005 10.9193 17.0005 10C17.0005 9.08069 16.8194 8.17038 16.4676 7.32105C16.1158 6.47172 15.6001 5.70002 14.95 5.05C14.7625 4.86247 14.6572 4.60816 14.6572 4.343C14.6572 4.07783 14.7625 3.82353 14.95 3.636ZM7.879 6.464C8.06647 6.65153 8.17179 6.90583 8.17179 7.171C8.17179 7.43616 8.06647 7.69047 7.879 7.878C7.60037 8.15658 7.37935 8.48732 7.22855 8.85133C7.07775 9.21534 7.00014 9.60549 7.00014 9.9995C7.00014 10.3935 7.07775 10.7837 7.22855 11.1477C7.37935 11.5117 7.60037 11.8424 7.879 12.121C7.97184 12.2139 8.04548 12.3242 8.0957 12.4456C8.14592 12.5669 8.17175 12.697 8.1717 12.8284C8.17166 12.9597 8.14574 13.0898 8.09543 13.2111C8.04512 13.3324 7.97141 13.4427 7.8785 13.5355C7.78559 13.6283 7.6753 13.702 7.55393 13.7522C7.43257 13.8024 7.3025 13.8282 7.17115 13.8282C7.0398 13.8282 6.90974 13.8022 6.78841 13.7519C6.66708 13.7016 6.55684 13.6279 6.464 13.535C5.52664 12.5974 5.00007 11.3258 5.00007 10C5.00007 8.67418 5.52664 7.40264 6.464 6.465C6.55687 6.37202 6.66716 6.29826 6.78856 6.24794C6.90996 6.19761 7.04008 6.17171 7.1715 6.17171C7.30292 6.17171 7.43304 6.19761 7.55444 6.24794C7.67584 6.29826 7.78613 6.37202 7.879 6.465V6.464ZM12.121 6.464C12.2139 6.37102 12.3242 6.29726 12.4456 6.24694C12.567 6.19661 12.6971 6.17071 12.8285 6.17071C12.9599 6.17071 13.09 6.19661 13.2114 6.24694C13.3328 6.29726 13.4431 6.37102 13.536 6.464C14.0004 6.92831 14.3688 7.47956 14.6202 8.08628C14.8716 8.69299 15.0009 9.34328 15.0009 10C15.0009 10.6567 14.8716 11.307 14.6202 11.9137C14.3688 12.5204 14.0004 13.0717 13.536 13.536C13.3484 13.7236 13.0939 13.8291 12.8285 13.8291C12.5631 13.8291 12.3086 13.7236 12.121 13.536C11.9334 13.3484 11.8279 13.0939 11.8279 12.8285C11.8279 12.5631 11.9334 12.3086 12.121 12.121C12.6834 11.5584 12.9994 10.7955 12.9994 10C12.9994 9.20451 12.6834 8.44158 12.121 7.879C12.028 7.78613 11.9543 7.67584 11.9039 7.55444C11.8536 7.43304 11.8277 7.30291 11.8277 7.1715C11.8277 7.04008 11.8536 6.90996 11.9039 6.78856C11.9543 6.66716 12.028 6.55687 12.121 6.464ZM10 9C10.2652 9 10.5196 9.10536 10.7071 9.29289C10.8946 9.48043 11 9.73478 11 10V10.01C11 10.2752 10.8946 10.5296 10.7071 10.7171C10.5196 10.9046 10.2652 11.01 10 11.01C9.73478 11.01 9.48043 10.9046 9.29289 10.7171C9.10536 10.5296 9 10.2752 9 10.01V10C9 9.73478 9.10536 9.48043 9.29289 9.29289C9.48043 9.10536 9.73478 9 10 9Z" fill="black"/></svg>