<svg viewBox="0 0 20 20" fill="none" xmlns="http://www.w3.org/2000/svg"><path d="M8 5C7.73478 5 7.48043 5.10536 7.29289 5.29289C7.10536 5.48043 7 5.73478 7 6C7 6.26522 7.10536 6.51957 7.29289 6.70711C7.48043 6.89464 7.73478 7 8 7H13.586L12.293 8.293C12.1108 8.4816 12.01 8.7342 12.0123 8.9964C12.0146 9.2586 12.1198 9.50941 12.3052 9.69482C12.4906 9.88023 12.7414 9.9854 13.0036 9.98767C13.2658 9.98995 13.5184 9.88916 13.707 9.707L16.707 6.707C16.8945 6.51947 16.9998 6.26516 16.9998 6C16.9998 5.73484 16.8945 5.48053 16.707 5.293L13.707 2.293C13.6148 2.19749 13.5044 2.12131 13.3824 2.0689C13.2604 2.01649 13.1292 1.9889 12.9964 1.98775C12.8636 1.9866 12.7319 2.0119 12.609 2.06218C12.4861 2.11246 12.3745 2.18671 12.2806 2.28061C12.1867 2.3745 12.1125 2.48615 12.0622 2.60905C12.0119 2.73194 11.9866 2.86362 11.9877 2.9964C11.9889 3.12918 12.0165 3.2604 12.0689 3.3824C12.1213 3.50441 12.1975 3.61475 12.293 3.707L13.586 5H8ZM12 15C12.2652 15 12.5196 14.8946 12.7071 14.7071C12.8946 14.5196 13 14.2652 13 14C13 13.7348 12.8946 13.4804 12.7071 13.2929C12.5196 13.1054 12.2652 13 12 13H6.414L7.707 11.707C7.80251 11.6148 7.87869 11.5044 7.9311 11.3824C7.98351 11.2604 8.0111 11.1292 8.01225 10.9964C8.0134 10.8636 7.9881 10.7319 7.93782 10.609C7.88754 10.4861 7.81329 10.3745 7.7194 10.2806C7.6255 10.1867 7.51385 10.1125 7.39095 10.0622C7.26806 10.0119 7.13638 9.9866 7.0036 9.98775C6.87082 9.9889 6.7396 10.0165 6.6176 10.0689C6.49559 10.1213 6.38525 10.1975 6.293 10.293L3.293 13.293C3.10553 13.4805 3.00021 13.7348 3.00021 14C3.00021 14.2652 3.10553 14.5195 3.293 14.707L6.293 17.707C6.4816 17.8892 6.7342 17.99 6.9964 17.9877C7.2586 17.9854 7.50941 17.8802 7.69482 17.6948C7.88023 17.5094 7.9854 17.2586 7.98767 16.9964C7.98995 16.7342 7.88916 16.4816 7.707 16.293L6.414 15H12Z" fill="black"/></svg>