<svg viewBox="0 0 20 20" fill="none" xmlns="http://www.w3.org/2000/svg"><path fill-rule="evenodd" clip-rule="evenodd" d="M12 13C11.7348 13 11.4804 13.1054 11.2929 13.2929C11.1054 13.4804 11 13.7348 11 14C11 14.2652 11.1054 14.5196 11.2929 14.7071C11.4804 14.8946 11.7348 15 12 15H17C17.2652 15 17.5196 14.8946 17.7071 14.7071C17.8946 14.5196 18 14.2652 18 14V9C18 8.73478 17.8946 8.48043 17.7071 8.29289C17.5196 8.10536 17.2652 8 17 8C16.7348 8 16.4804 8.10536 16.2929 8.29289C16.1054 8.48043 16 8.73478 16 9V11.586L11.707 7.293C11.5195 7.10553 11.2652 7.00021 11 7.00021C10.7348 7.00021 10.4805 7.10553 10.293 7.293L8 9.586L3.707 5.293C3.51839 5.11084 3.26579 5.01005 3.00359 5.01232C2.7414 5.0146 2.49058 5.11977 2.30518 5.30518C2.11977 5.49059 2.0146 5.7414 2.01232 6.0036C2.01004 6.26579 2.11084 6.5184 2.293 6.707L7.293 11.707C7.48052 11.8945 7.73483 11.9998 8 11.9998C8.26516 11.9998 8.51947 11.8945 8.707 11.707L11 9.414L14.586 13H12Z" fill="black"/></svg>