<svg viewBox="0 0 20 20" fill="none" xmlns="http://www.w3.org/2000/svg"><path fill-rule="evenodd" clip-rule="evenodd" d="M4.649 3.084C4.89149 3.19056 5.0818 3.38897 5.17817 3.63569C5.27453 3.88242 5.26908 4.15729 5.163 4.4C4.39272 6.1663 3.99673 8.07304 4 10C4 11.993 4.416 13.886 5.164 15.6C5.26064 15.8413 5.25955 16.1107 5.16097 16.3511C5.0624 16.5916 4.87407 16.7843 4.63589 16.8883C4.39771 16.9923 4.1284 16.9995 3.88501 16.9083C3.64162 16.8172 3.44327 16.6349 3.332 16.4C2.45089 14.3815 1.99737 12.2024 2 10C2 7.726 2.475 5.56 3.332 3.6C3.38457 3.47962 3.46035 3.37079 3.55499 3.27971C3.64964 3.18863 3.7613 3.11708 3.8836 3.06917C4.0059 3.02125 4.13645 2.99789 4.26777 3.00044C4.3991 3.00298 4.52864 3.03138 4.649 3.084ZM12.96 7C12.5102 7.0001 12.0661 7.10135 11.6608 7.29626C11.2554 7.49116 10.899 7.77474 10.618 8.126L10.29 8.536L10.179 8.257C10.0306 7.88606 9.77445 7.56808 9.44365 7.34404C9.11285 7.12 8.72253 7.00017 8.323 7H8C7.73478 7 7.48043 7.10535 7.29289 7.29289C7.10535 7.48043 7 7.73478 7 8C7 8.26521 7.10535 8.51957 7.29289 8.7071C7.48043 8.89464 7.73478 9 8 9H8.323L8.855 10.33L7.82 11.625C7.72627 11.7421 7.60741 11.8366 7.47222 11.9015C7.33702 11.9664 7.18896 12.0001 7.039 12H7C6.73478 12 6.48043 12.1054 6.29289 12.2929C6.10535 12.4804 6 12.7348 6 13C6 13.2652 6.10535 13.5196 6.29289 13.7071C6.48043 13.8946 6.73478 14 7 14H7.039C7.48881 13.9999 7.93285 13.8986 8.33824 13.7037C8.74364 13.5088 9.10001 13.2253 9.381 12.874L9.709 12.464L9.82 12.743C9.96848 13.1141 10.2248 13.4322 10.5558 13.6562C10.8868 13.8803 11.2773 14 11.677 14H12C12.2652 14 12.5196 13.8946 12.7071 13.7071C12.8946 13.5196 13 13.2652 13 13C13 12.7348 12.8946 12.4804 12.7071 12.2929C12.5196 12.1054 12.2652 12 12 12H11.677L11.145 10.67L12.18 9.375C12.2737 9.25793 12.3926 9.16344 12.5278 9.09853C12.663 9.03362 12.811 8.99994 12.961 9H13C13.2652 9 13.5196 8.89464 13.7071 8.7071C13.8946 8.51957 14 8.26521 14 8C14 7.73478 13.8946 7.48043 13.7071 7.29289C13.5196 7.10535 13.2652 7 13 7H12.961H12.96ZM14.834 4.4C14.7296 4.15721 14.7255 3.88294 14.8226 3.63715C14.9198 3.39136 15.1104 3.19404 15.3526 3.08831C15.5948 2.98259 15.8691 2.97707 16.1154 3.07295C16.3617 3.16883 16.56 3.35832 16.667 3.6C17.5484 5.61841 18.0023 7.79751 18 10C18 12.274 17.525 14.44 16.668 16.4C16.6182 16.5243 16.544 16.6373 16.4496 16.7324C16.3553 16.8275 16.2429 16.9026 16.119 16.9534C15.9951 17.0042 15.8623 17.0296 15.7284 17.0281C15.5945 17.0266 15.4622 16.9982 15.3395 16.9446C15.2168 16.891 15.1061 16.8133 15.014 16.7161C14.9218 16.6189 14.8502 16.5042 14.8032 16.3788C14.7562 16.2534 14.735 16.1199 14.7406 15.9861C14.7462 15.8523 14.7787 15.721 14.836 15.6C15.6066 13.8338 16.003 11.927 16 10C16 8.007 15.584 6.114 14.835 4.4H14.834Z" fill="black"/></svg>