<svg viewBox="0 0 20 20" fill="none" xmlns="http://www.w3.org/2000/svg"><path fill-rule="evenodd" clip-rule="evenodd" d="M9.383 3.076C9.56569 3.15175 9.72181 3.27996 9.83163 3.44443C9.94146 3.6089 10 3.80224 10 4V16C9.99996 16.1978 9.94129 16.3911 9.8314 16.5555C9.72152 16.7199 9.56535 16.848 9.38265 16.9237C9.19995 16.9993 8.99892 17.0192 8.80497 16.9806C8.61102 16.942 8.43285 16.8468 8.293 16.707L4.586 13H2C1.73478 13 1.48043 12.8946 1.29289 12.7071C1.10536 12.5196 1 12.2652 1 12V8C1 7.73479 1.10536 7.48043 1.29289 7.29289C1.48043 7.10536 1.73478 7 2 7H4.586L8.293 3.293C8.43285 3.15307 8.61105 3.05776 8.80508 3.01913C8.9991 2.98051 9.20023 3.0003 9.383 3.076ZM12.293 7.293C12.4805 7.10553 12.7348 7.00022 13 7.00022C13.2652 7.00022 13.5195 7.10553 13.707 7.293L15 8.586L16.293 7.293C16.3852 7.19749 16.4956 7.12131 16.6176 7.0689C16.7396 7.01649 16.8708 6.9889 17.0036 6.98775C17.1364 6.9866 17.2681 7.0119 17.391 7.06218C17.5138 7.11246 17.6255 7.18671 17.7194 7.28061C17.8133 7.3745 17.8875 7.48615 17.9378 7.60905C17.9881 7.73194 18.0134 7.86362 18.0123 7.9964C18.0111 8.12918 17.9835 8.2604 17.9311 8.38241C17.8787 8.50441 17.8025 8.61475 17.707 8.707L16.414 10L17.707 11.293C17.8892 11.4816 17.99 11.7342 17.9877 11.9964C17.9854 12.2586 17.8802 12.5094 17.6948 12.6948C17.5094 12.8802 17.2586 12.9854 16.9964 12.9877C16.7342 12.99 16.4816 12.8892 16.293 12.707L15 11.414L13.707 12.707C13.5184 12.8892 13.2658 12.99 13.0036 12.9877C12.7414 12.9854 12.4906 12.8802 12.3052 12.6948C12.1198 12.5094 12.0146 12.2586 12.0123 11.9964C12.01 11.7342 12.1108 11.4816 12.293 11.293L13.586 10L12.293 8.707C12.1055 8.51947 12.0002 8.26517 12.0002 8C12.0002 7.73484 12.1055 7.48053 12.293 7.293Z" fill="black"/></svg>