<svg viewBox="0 0 20 20" fill="none" xmlns="http://www.w3.org/2000/svg"><path fill-rule="evenodd" clip-rule="evenodd" d="M17.778 8.222C13.482 3.926 6.518 3.926 2.222 8.222C2.0334 8.40416 1.7808 8.50495 1.5186 8.50268C1.2564 8.5004 1.00559 8.39523 0.820184 8.20982C0.634775 8.02441 0.529607 7.7736 0.527328 7.5114C0.52505 7.24921 0.625844 6.9966 0.808002 6.808C5.884 1.731 14.116 1.731 19.192 6.808C19.3742 6.9966 19.475 7.24921 19.4727 7.5114C19.4704 7.7736 19.3652 8.02441 19.1798 8.20982C18.9944 8.39523 18.7436 8.5004 18.4814 8.50268C18.2192 8.50495 17.9666 8.40416 17.778 8.222ZM14.95 11.05C14.3 10.3999 13.5283 9.88424 12.679 9.53241C11.8296 9.18058 10.9193 8.9995 10 8.9995C9.08069 8.9995 8.17038 9.18058 7.32105 9.53241C6.47173 9.88424 5.70002 10.3999 5.05 11.05C4.8614 11.2322 4.6088 11.333 4.3466 11.3307C4.0844 11.3284 3.83359 11.2232 3.64818 11.0378C3.46278 10.8524 3.35761 10.6016 3.35533 10.3394C3.35305 10.0772 3.45384 9.8246 3.636 9.636C4.47173 8.80026 5.46389 8.13732 6.55583 7.68502C7.64776 7.23272 8.8181 6.99992 10 6.99992C11.1819 6.99992 12.3522 7.23272 13.4442 7.68502C14.5361 8.13732 15.5283 8.80026 16.364 9.636C16.5462 9.8246 16.647 10.0772 16.6447 10.3394C16.6424 10.6016 16.5372 10.8524 16.3518 11.0378C16.1664 11.2232 15.9156 11.3284 15.6534 11.3307C15.3912 11.333 15.1386 11.2322 14.95 11.05ZM12.12 13.88C11.5574 13.3176 10.7945 13.0016 9.999 13.0016C9.20351 13.0016 8.44059 13.3176 7.878 13.88C7.69036 14.0676 7.43587 14.1731 7.1705 14.1731C6.90514 14.1731 6.65064 14.0676 6.463 13.88C6.27536 13.6924 6.16995 13.4379 6.16995 13.1725C6.16995 12.9071 6.27536 12.6526 6.463 12.465C6.92731 12.0006 7.47857 11.6322 8.08528 11.3808C8.69199 11.1294 9.34228 11.0001 9.999 11.0001C10.6557 11.0001 11.306 11.1294 11.9127 11.3808C12.5194 11.6322 13.0707 12.0006 13.535 12.465C13.7226 12.6526 13.8281 12.9071 13.8281 13.1725C13.8281 13.4379 13.7226 13.6924 13.535 13.88C13.3474 14.0676 13.0929 14.1731 12.8275 14.1731C12.5621 14.1731 12.3076 14.0676 12.12 13.88ZM9 16C9 15.7348 9.10536 15.4804 9.2929 15.2929C9.48043 15.1054 9.73479 15 10 15H10.01C10.2752 15 10.5296 15.1054 10.7171 15.2929C10.9046 15.4804 11.01 15.7348 11.01 16C11.01 16.2652 10.9046 16.5196 10.7171 16.7071C10.5296 16.8946 10.2752 17 10.01 17H10C9.73479 17 9.48043 16.8946 9.2929 16.7071C9.10536 16.5196 9 16.2652 9 16Z" fill="black"/></svg>