<svg viewBox="0 0 20 20" fill="none" xmlns="http://www.w3.org/2000/svg"><path fill-rule="evenodd" clip-rule="evenodd" d="M4.293 4.293C4.48053 4.10553 4.73484 4.00021 5 4.00021C5.26516 4.00021 5.51947 4.10553 5.707 4.293L10 8.586L14.293 4.293C14.3852 4.19749 14.4956 4.1213 14.6176 4.0689C14.7396 4.01649 14.8708 3.9889 15.0036 3.98775C15.1364 3.98659 15.2681 4.01189 15.391 4.06218C15.5139 4.11246 15.6255 4.18671 15.7194 4.2806C15.8133 4.37449 15.8875 4.48615 15.9378 4.60904C15.9881 4.73194 16.0134 4.86362 16.0123 4.9964C16.0111 5.12918 15.9835 5.2604 15.9311 5.3824C15.8787 5.50441 15.8025 5.61475 15.707 5.707L11.414 10L15.707 14.293C15.8892 14.4816 15.99 14.7342 15.9877 14.9964C15.9854 15.2586 15.8802 15.5094 15.6948 15.6948C15.5094 15.8802 15.2586 15.9854 14.9964 15.9877C14.7342 15.9899 14.4816 15.8892 14.293 15.707L10 11.414L5.707 15.707C5.5184 15.8892 5.2658 15.9899 5.0036 15.9877C4.7414 15.9854 4.49059 15.8802 4.30518 15.6948C4.11977 15.5094 4.0146 15.2586 4.01233 14.9964C4.01005 14.7342 4.11084 14.4816 4.293 14.293L8.586 10L4.293 5.707C4.10553 5.51947 4.00021 5.26516 4.00021 5C4.00021 4.73483 4.10553 4.48053 4.293 4.293Z" fill="black"/></svg>